<?xml version="1.0" encoding="UTF-8"?>
<svg width="304px" height="85px" viewBox="0 0 304 85" version="1.1" xmlns="http://www.w3.org/2000/svg" xmlns:xlink="http://www.w3.org/1999/xlink">
    <title>smiley swap_white</title>
    <g id="smiley-swap_white" stroke="none" stroke-width="1" fill="none" fill-rule="evenodd">
        <path d="M29.521923,30.096425 C28.239997,29.104175 26.8122489,28.294175 25.2369156,27.665675 C23.6615822,27.038425 22.096323,26.481175 20.542397,25.994425 C19.2821304,25.589925 18.0850785,25.205675 16.9509896,24.841425 C15.816397,24.476675 14.8180563,24.061175 13.9574785,23.595175 C13.0958933,23.129925 12.4136267,22.593175 11.9094193,21.985425 C11.4054637,21.377425 11.15336,20.627675 11.15336,19.736425 C11.15336,18.319925 11.6986193,17.123925 12.7916563,16.151675 C13.8836859,15.179925 15.479923,14.693675 17.5808711,14.693675 C21.151123,14.693675 23.9235081,16.197675 25.8987822,19.204175 L32.9564267,13.755425 C32.0316267,12.796425 31.0546933,11.910175 30.0261304,11.096925 C28.9960563,10.283675 27.8617156,9.585925 26.6231081,9.001425 C25.3834933,8.417675 24.0179526,7.959675 22.5274933,7.624925 C21.035523,7.291925 19.365997,7.124925 17.5179081,7.124925 C15.3328415,7.124925 13.3054341,7.449425 11.4369452,8.097425 C9.56719704,8.745675 7.94955259,9.646175 6.58501926,10.799425 C5.21947852,11.954175 4.15893037,13.299675 3.40287111,14.838175 C2.64656,16.376425 2.26827852,18.036925 2.26827852,19.818675 C2.26827852,21.923925 2.65638222,23.675425 3.43435259,25.071925 C4.2110637,26.469675 5.21947852,27.643175 6.45909333,28.595175 C7.69770074,29.546925 9.09497481,30.305675 10.6491526,30.872425 C12.2030785,31.439175 13.75776,31.965175 15.3124415,32.450675 C16.530397,32.815675 17.7166193,33.179925 18.8728711,33.544425 C20.0276119,33.909175 21.0466044,34.324175 21.9288415,34.789675 C22.8108267,35.254675 23.5248267,35.812175 24.0710933,36.459675 C24.6166044,37.107925 24.8903674,37.897425 24.8903674,38.828175 C24.8903674,40.366425 24.2917156,41.743675 23.0944119,42.958175 C21.89736,44.173175 20.1643674,44.779925 17.8961896,44.779925 C15.7949896,44.779925 13.8836859,44.273925 12.1617748,43.260175 C10.4388563,42.246675 8.98944889,40.785675 7.81380444,38.877925 L-0.000151111111,44.720675 C2.10004148,47.055675 4.57851556,49.004425 7.43577481,50.567175 C10.2920267,52.130675 13.7998193,52.911925 17.9589007,52.911925 C20.4796859,52.911925 22.7264563,52.516925 24.7012267,51.726925 C26.6754933,50.937425 28.3344415,49.904175 29.6795822,48.628175 C31.0232119,47.352425 32.0522785,45.884675 32.7670341,44.222925 C33.4810341,42.562425 33.8384119,40.860925 33.8384119,39.119175 C33.8384119,36.972925 33.438723,35.180925 32.6411081,33.741925 C31.8424859,32.304425 30.8028415,31.089175 29.521923,30.096425" id="Fill-1" fill="#FFFFFF"></path>
        <path d="M80,54 L80,38.0804795 C80,34.6433132 79.1096448,31.9380369 77.3291867,29.9625609 C75.5482239,27.9873462 72.9066853,27 69.4050757,27 C67.5352792,27 65.8658632,27.4160959 64.3968275,28.2480265 C62.9280443,29.0804795 61.7482227,30.1924193 60.8578674,31.5843685 C60.0856205,30.1320815 58.9951373,29.0052531 57.5859129,28.2028384 C56.1761838,27.4006849 54.4474612,27 52.3994928,27 C50.7969543,27 49.3645121,27.3157941 48.1036803,27.9481658 C46.841839,28.5802763 45.7960249,29.4388495 44.9654809,30.5259752 L44.9654809,27.0459717 L39,27.0459717 L39,54 L45.0098978,54 L45.0098978,39.4133968 C45.0098978,37.0727595 45.5663698,35.3174774 46.6793138,34.1465057 C47.7920055,32.9760564 49.1946683,32.3907012 50.8862927,32.3907012 C52.6962779,32.3907012 54.0613378,32.9311296 54.9814725,34.0112027 C55.9013548,35.0917982 56.3616745,36.5777804 56.3616745,38.4681042 L56.3616745,54 L62.4604059,54 L62.4604059,39.2788774 C62.4604059,36.9680172 63.0093068,35.242251 64.1076135,34.1015788 C65.2051631,32.9616903 66.5704754,32.3907012 68.203298,32.3907012 C70.0725897,32.3907012 71.4820665,32.953593 72.432233,34.0788542 C73.38139,35.204899 73.8565994,36.7271883 73.8565994,38.6483341 L73.8565994,54 L80,54 Z" id="Fill-4" fill="#FFFFFF"></path>
        <path d="M86.5001167,24 C87.5977257,24 88.4562977,23.6830029 89.073732,23.0473651 C89.6913996,22.4126665 90,21.5706283 90,20.5210157 C90,19.4721076 89.6913996,18.6227902 89.073732,17.9735333 C88.4562977,17.3249807 87.5977257,17 86.5001167,17 C85.4295862,17 84.578484,17.3249807 83.9470437,17.9735333 C83.31537,18.6227902 83,19.4721076 83,20.5210157 C83,21.5706283 83.3020642,22.4126665 83.9059592,23.0473651 C84.5096208,23.6830029 85.3742622,24 86.5001167,24" id="Fill-6" fill="#FFFFFF"></path>
        <polygon id="Fill-8" fill="#FFFFFF" points="83 54 90 54 90 27 83 27"></polygon>
        <path d="M108.069491,36.9810612 C108.604841,35.6290273 109.534619,34.5395774 110.858573,33.7134938 C112.182273,32.8866279 113.75189,32.4733253 115.567172,32.4733253 C117.441402,32.4733253 119.018104,32.8558584 120.297782,33.6185776 C121.576701,34.3831222 122.43994,35.5036023 122.885981,36.9810612 L108.069491,36.9810612 Z M125.206758,30.6866067 C124.016389,29.522319 122.596295,28.6169648 120.944958,27.9700224 C119.293369,27.3233408 117.500604,27 115.567172,27 C113.662834,27 111.88525,27.3551534 110.234166,28.0641563 C108.582577,28.77342 107.14705,29.7337943 105.927333,30.9455401 C104.707109,32.1572858 103.747477,33.5906764 103.048689,35.2464942 C102.349647,36.9010083 102,38.6752105 102,40.5667542 C102,42.4288322 102.33472,44.1800877 103.00416,45.82026 C103.673601,47.4604323 104.610969,48.8870432 105.816012,50.0987889 C107.020549,51.3105347 108.471256,52.2638685 110.167121,52.9582689 C111.862733,53.6529302 113.737469,54 115.790318,54 C118.705395,54 121.182526,53.3329792 123.220954,51.9994592 C125.25837,50.6654176 126.842662,48.9102507 127.973575,46.732394 L123.019818,43.7884281 C122.395159,45.2304238 121.458044,46.3801089 120.20822,47.2385266 C118.958901,48.0974658 117.486183,48.5261531 115.790318,48.5261531 C113.64816,48.5261531 111.87766,47.9441397 110.479324,46.7780267 C109.080735,45.6132176 108.173474,44.0804779 107.757288,42.1785038 L129,42.1785038 L129,39.9795256 C129,38.1109287 128.66528,36.3860098 127.996093,34.804769 C127.326652,33.2237889 126.396368,31.8511551 125.206758,30.6866067 L125.206758,30.6866067 Z" id="Fill-10" fill="#FFFFFF"></path>
        <polygon id="Fill-11" fill="#FFFFFF" points="142.74635 45.2772534 135.447742 27 129 27 139.746237 52.5596248 134.238711 66 140.373217 66 156 27 149.641609 27"></polygon>
        <path d="M96.5026774,66 L102,66 L102,59.9323753 L98.8968525,59.9323753 C98.298127,59.9323753 97.8127983,59.4127083 97.8127983,58.7718807 L97.8127983,20 L92,20 L92,61.1790053 C92,63.8416826 94.0157011,66 96.5026774,66" id="Fill-12" fill="#FFFFFF"></path>
        <path d="M97.0001311,78.147382 C88.6479042,78.147382 81.8526589,71.3524393 81.8526589,63 L75,63 C75,75.130699 84.8693598,85 97.0001311,85 C109.131165,85 119,75.130699 119,63 L112.147341,63 C112.147341,71.3524393 105.352358,78.147382 97.0001311,78.147382" id="Fill-13" fill="#FFFFFF"></path>
        <path d="M197.407966,30.9662194 C196.044052,29.9027661 194.524722,29.034015 192.849457,28.360486 C191.173153,27.6879967 189.507504,27.0908928 187.85433,26.5689143 C186.514067,26.1350587 185.240075,25.7235587 184.033136,25.3323347 C182.826977,24.9418906 181.764538,24.4963373 180.849198,23.9964545 C179.932558,23.4981313 179.206419,22.9228632 178.670002,22.27091 C178.134104,21.6194766 177.865636,20.8157129 177.865636,19.8601387 C177.865636,18.341254 178.446495,17.0594432 179.608732,16.0170459 C180.76993,14.9759483 182.468586,14.4539698 184.703918,14.4539698 C188.501722,14.4539698 191.451758,16.0664363 193.553505,19.2895496 L201.061789,13.4479654 C200.077838,12.4203852 199.038529,11.4702699 197.944123,10.5983994 C196.848678,9.72652891 195.641739,8.97839436 194.323826,8.35191617 C193.005393,7.72647777 191.552596,7.23517329 189.966214,6.87696294 C189.870054,6.85538713 189.767137,6.84031006 189.669677,6.82003401 L189.669677,0 L181.671236,0 L181.671236,6.54578733 C180.451043,6.71735397 179.281788,6.9934203 178.167111,7.38256464 C176.178156,8.07740954 174.45689,9.04338173 173.005133,10.2797014 C171.552596,11.5170608 170.424404,12.9597803 169.619778,14.6091596 C168.815671,16.258279 168.413618,18.0386728 168.413618,19.9480016 C168.413618,22.2051427 168.825288,24.0824977 169.653304,25.5800666 C170.480021,27.0781553 171.552596,28.3363107 172.871548,29.3568723 C174.188942,30.3771739 175.675525,31.1902958 177.329478,31.7983176 C178.982652,32.4055595 180.636346,32.9696498 182.2903,33.4900687 C183.585862,33.8807727 184.848418,34.2719966 186.077968,34.6627007 C187.306738,35.0536646 188.391008,35.4984382 189.329738,35.9972812 C190.267949,36.4958642 191.027614,37.0929682 191.608732,37.788073 C192.189591,38.4829179 192.480411,39.3290534 192.480411,40.3267394 C192.480411,41.9761187 191.843935,43.4521118 190.569684,44.7541986 C189.295952,46.0565454 187.452277,46.7074588 185.038659,46.7074588 C182.803846,46.7074588 180.76993,46.1644244 178.93873,45.0780956 C177.104931,43.9915069 175.563251,42.4253114 174.31265,40.380289 L166,46.6435113 C168.233773,49.1465646 170.870639,51.2357784 173.910337,52.9111527 C175.743616,53.9223561 177.833929,54.6224 180.171659,55.023242 L180.171659,61 L188.16984,61 L188.16984,55.2197638 C189.643948,55.0170033 191.015139,54.6639919 192.279514,54.1547509 C194.379443,53.3080955 196.14463,52.2007108 197.575596,50.8325968 C199.005263,49.4647428 200.099669,47.8910087 200.860373,46.1103549 C201.620038,44.3299611 202,42.5058957 202,40.6391987 C202,38.3376062 201.575076,36.4165797 200.726788,34.8742995 C199.876681,33.3327992 198.77058,32.0307124 197.407966,30.9662194" id="Fill-14" fill="#FFFFFF"></path>
        <polygon id="Fill-15" fill="#FFFFFF" points="239.740331 27 233.617727 45.6464709 227.038674 27 220.915811 27 214.199694 45.599971 208.305443 27 202 27 210.910168 54 216.98674 54 223.931468 35.3080741 230.693617 54 236.633384 54 246 27"></polygon>
        <path d="M266.767236,43.5011137 C266.371098,44.4513687 265.834852,45.2865518 265.159746,46.0069232 C264.483892,46.726774 263.676657,47.2888563 262.737293,47.6921289 C261.797429,48.0951412 260.769563,48.2966473 259.654192,48.2966473 C258.567491,48.2966473 257.546855,48.0951412 256.59328,47.6921289 C255.638459,47.2888563 254.809285,46.7340636 254.104512,46.0285318 C253.39974,45.3222189 252.849035,44.4875565 252.452896,43.5227222 C252.056259,42.5584086 251.858065,41.5284884 251.858065,40.4342632 C251.858065,39.3402983 252.056259,38.3176677 252.452896,37.3666316 C252.849035,36.4161162 253.39974,35.5957728 254.104512,34.9042995 C254.809285,34.2130866 255.638459,33.6661042 256.59328,33.2630919 C257.546855,32.859559 258.567491,32.6577925 259.654192,32.6577925 C260.769563,32.6577925 261.797429,32.859559 262.737293,33.2630919 C263.676657,33.6661042 264.483892,34.2201159 265.159746,34.9259081 C265.834852,35.6317002 266.371098,36.4603747 266.767236,37.4103694 C267.163874,38.3606244 267.362068,39.3689362 267.362068,40.4342632 C267.362068,41.5284884 267.163874,42.551119 266.767236,43.5011137 L266.767236,43.5011137 Z M267.053683,30.5950882 C266.11357,29.4847217 264.924407,28.6081439 263.485942,27.9643136 C262.046979,27.321785 260.475887,27 258.773413,27 C257.158195,27 255.580122,27.3033006 254.038448,27.9091207 C252.497022,28.5149408 251.131354,29.3938617 249.94219,30.5469246 C248.753026,31.6997271 247.798205,33.1115718 247.079471,34.7814172 C246.359242,36.4520437 246,38.3647899 246,40.5227801 C246,42.65031 246.366721,44.5489977 247.10141,46.2196241 C247.834852,47.8894696 248.804133,49.3005332 250.008005,50.4530754 C251.212127,51.6063987 252.569569,52.4855798 254.082574,53.0914 C255.594831,53.6972201 257.128279,54 258.685161,54 C260.387884,54 261.973685,53.6558254 263.442065,52.9666953 C264.910196,52.2780858 266.11357,51.3322566 267.053683,50.1305094 L267.053683,53.9539191 L273,53.9539191 L273,27.0460809 L267.053683,27.0460809 L267.053683,30.5950882 Z" id="Fill-16" fill="#FFFFFF"></path>
        <path d="M297.536351,43.3852203 C297.139567,44.3420253 296.587966,45.1697416 295.882046,45.8701766 C295.176376,46.569837 294.352595,47.1200127 293.411701,47.5199293 C292.469809,47.9193295 291.455252,48.1194169 290.367531,48.1194169 C289.249346,48.1194169 288.220306,47.9193295 287.279412,47.5199293 C286.33752,47.1200127 285.528971,46.562608 284.853015,45.8487478 C284.175812,45.1343713 283.646684,44.3061387 283.264633,43.3637916 C282.882083,42.4217028 282.691307,41.4075825 282.691307,40.3224634 C282.691307,39.266002 282.882083,38.2660815 283.264633,37.3237344 C283.646684,36.3816456 284.175812,35.5598673 284.853015,34.8599488 C285.528971,34.1600302 286.33752,33.610629 287.279412,33.2109705 C288.220306,32.8107958 289.249346,32.6107084 290.367531,32.6107084 C291.455252,32.6107084 292.469809,32.8107958 293.411701,33.2109705 C294.352595,33.610629 295.176376,34.1530594 295.882046,34.83852 C296.587966,35.5242389 297.139567,36.3377554 297.536351,37.2803607 C297.933883,38.2234822 298.13215,39.2376025 298.13215,40.3224634 C298.13215,41.4075825 297.933883,42.4289317 297.536351,43.3852203 M302.918771,34.7166604 C302.197869,33.0607114 301.249235,31.6606161 300.073617,30.5174071 C298.896501,29.37394 297.543343,28.5023335 296.01439,27.901555 C294.484939,27.3007765 292.91129,27 291.293941,27 C289.529516,27 287.91916,27.3601573 286.463372,28.079181 C285.007334,28.798721 283.823226,29.7606895 282.911798,30.964312 L282.911798,27.0456974 L277,27.0456974 L277,66 L282.911798,66 L282.911798,50.0815642 C283.823226,51.2671142 285.014076,52.1797708 286.485346,52.817985 C287.955367,53.4567156 289.573465,53.7753063 291.338139,53.7753063 C292.896807,53.7753063 294.43325,53.4750462 295.948468,52.8742677 C297.462937,52.2734892 298.816096,51.4016245 300.006946,50.2578992 C301.198295,49.1149485 302.161162,47.7156277 302.896797,46.0596787 C303.631683,44.4029551 304,42.5200683 304,40.4102437 C304,38.2702123 303.639174,36.3733839 302.918771,34.7166604" id="Fill-17" fill="#FFFFFF"></path>
    </g>
</svg>